<?xml version="1.0" encoding="utf-8"?>
<!-- Generator: Adobe Illustrator 25.2.3, SVG Export Plug-In . SVG Version: 6.00 Build 0)  -->
<svg version="1.1" id="Layer_1" xmlns="http://www.w3.org/2000/svg" xmlns:xlink="http://www.w3.org/1999/xlink" x="0px" y="0px"
	 viewBox="0 0 198.43 198.43" style="enable-background:new 0 0 198.43 198.43;" xml:space="preserve">
<style type="text/css">
	.st0{fill:none;stroke:#020203;stroke-width:5;stroke-linecap:round;stroke-linejoin:round;stroke-miterlimit:10;}
	.st1{fill:#FFFFFF;stroke:#020203;stroke-width:5;stroke-linecap:round;stroke-linejoin:round;stroke-miterlimit:10;}
	.st2{fill:none;stroke:#020203;stroke-width:5;stroke-linecap:round;stroke-miterlimit:10;}
	.st3{fill:none;stroke:#020203;stroke-width:5;stroke-miterlimit:10;}
</style>
<g>
	<g>
		<line class="st0" x1="89.46" y1="39.37" x2="100.96" y2="31.59"/>
		<line class="st0" x1="112.44" y1="39.34" x2="100.96" y2="31.59"/>
	</g>
	<g>
		<polyline class="st1" points="95.76,36.48 95.76,67.17 66.96,77.09 66.96,149.32 81.36,146.02 84.43,137.04 93.4,128.55 
			95.76,92.9 100.96,83.7 		"/>
		<polyline class="st1" points="106.15,45.89 106.15,67.17 134.95,77.09 134.95,149.32 120.55,146.02 117.48,137.04 108.5,128.55 
			106.15,92.9 100.96,83.7 		"/>
		<path class="st2" d="M24.98,168.65c19.35-7.9,46.23-12.81,75.97-12.81c29.6,0,56.39,4.85,75.7,12.7"/>
		<path class="st3" d="M24.58,168.81"/>
		<path class="st3" d="M177.32,168.81"/>
	</g>
</g>
</svg>
