<?xml version="1.0" encoding="utf-8"?>
<!-- Generator: Adobe Illustrator 25.2.3, SVG Export Plug-In . SVG Version: 6.00 Build 0)  -->
<svg version="1.1" id="Layer_1" xmlns="http://www.w3.org/2000/svg" xmlns:xlink="http://www.w3.org/1999/xlink" x="0px" y="0px"
	 viewBox="0 0 595.3 841.9" style="enable-background:new 0 0 595.3 841.9;" xml:space="preserve">
<style type="text/css">
	.st0{fill:#FFFFFF;stroke:#000000;stroke-miterlimit:10;}
	.st1{fill:none;stroke:#000000;stroke-width:6;stroke-linecap:round;stroke-linejoin:round;stroke-miterlimit:10;}
	.st2{fill:#FFFFFF;stroke:#000000;stroke-width:6;stroke-linecap:round;stroke-linejoin:round;stroke-miterlimit:10;}
	.st3{fill:none;stroke:#000000;stroke-width:5;stroke-linecap:round;stroke-miterlimit:10;}
	.st4{fill:none;stroke:#000000;stroke-width:5;stroke-miterlimit:10;}
</style>
<path class="st0" d="M777,345.9"/>
<g>
	<g>
		<line class="st1" x1="275.5" y1="304" x2="297.6" y2="289"/>
		<line class="st1" x1="319.7" y1="303.9" x2="297.6" y2="289"/>
	</g>
	<g>
		<polyline class="st2" points="287.7,298.4 287.7,357.4 232.3,376.5 232.3,515.4 260,509 265.9,491.8 283.1,475.5 287.7,406.9 
			297.6,389.2 		"/>
		<polyline class="st2" points="307.6,316.5 307.6,357.4 363,376.5 363,515.4 335.3,509 329.4,491.8 312.2,475.5 307.6,406.9 
			297.6,389.2 		"/>
		<path class="st3" d="M151.6,552.6c37.2-15.2,88.9-24.6,146.1-24.6c56.9,0,108.4,9.3,145.6,24.4"/>
		<path class="st4" d="M150.8,552.9"/>
		<path class="st4" d="M444.5,552.9"/>
	</g>
</g>
</svg>
